<svg width="46" height="42" viewBox="0 0 46 42" fill="none" xmlns="http://www.w3.org/2000/svg">
<path d="M44.8132 0.282037C44.4515 0.0485003 44.0122 0 43.7081 0L1.54146 0.00373427C1.04906 0.00373427 0.667248 0.135052 0.40797 0.394703C0.132254 0.670023 -0.000744067 1.07517 3.13059e-06 1.63178L0.0433464 37.9584L0.195011 38.0442C1.03038 38.515 1.82466 38.4933 2.59352 38.4724C2.79078 38.4672 2.99403 38.4613 3.19951 38.4642C3.30561 38.7754 3.30411 39.1126 3.30186 39.4939C3.30037 39.7998 3.29812 40.1162 3.35416 40.4504C3.39302 40.6825 3.52229 40.872 3.71881 40.9839C3.94969 41.1152 4.26126 41.1324 4.53175 41.0272C5.08169 40.8145 5.06524 40.1244 5.05105 39.5163C5.04283 39.1835 5.03312 38.7769 5.13325 38.6045C5.88493 38.3277 6.74794 38.4143 7.58406 38.4978C7.70211 38.5098 7.82167 38.5217 7.94197 38.5329C7.9868 38.894 7.98231 39.2007 7.97708 39.5215C7.97409 39.711 7.97111 39.9065 7.97858 40.1191C7.99053 40.484 8.10036 40.7548 8.30435 40.9235C8.49563 41.0816 8.75043 41.1376 9.06202 41.0898C9.74122 40.9854 9.73 40.1005 9.72028 39.3894C9.71655 39.1081 9.71057 38.6485 9.77857 38.5142L35.5165 38.4389C35.5494 38.7246 35.5494 38.9873 35.5494 39.2432C35.5494 39.6633 35.5494 40.0983 35.6914 40.6116C35.7766 40.9182 36.056 41.1078 36.4147 41.1078C36.4378 41.1078 36.461 41.107 36.4849 41.1055C36.8989 41.0779 37.2201 40.8242 37.2665 40.4885C37.3195 40.1012 37.3158 39.764 37.312 39.4372C37.3091 39.138 37.3053 38.8522 37.3464 38.5396C37.4794 38.5277 37.6124 38.5135 37.7432 38.5008C38.5546 38.418 39.393 38.3314 40.1282 38.5993C40.2269 38.7761 40.2142 39.182 40.2037 39.514C40.1843 40.1259 40.1626 40.8183 40.7305 41.0145C40.9554 41.0921 41.2939 41.1167 41.5688 40.9526C41.7556 40.8414 41.8782 40.6578 41.914 40.4362C41.9671 40.1072 41.9708 39.7976 41.9738 39.4976C41.9776 39.1156 41.9813 38.7784 42.0844 38.4635C42.4468 38.4262 42.7905 38.4299 43.1522 38.4344C43.7716 38.4419 44.4119 38.4493 45.1382 38.23L45.3504 38.1658L45.3743 1.33482C45.3743 0.881921 45.1808 0.517812 44.8139 0.281291L44.8132 0.282037ZM43.6206 36.7094L1.74694 36.7564L1.74247 1.74743L43.587 1.77952L43.6206 36.7094Z" fill="white"/>
<path d="M25.7028 10.9912H25.7043L40.176 10.9576C40.4301 10.9576 40.7275 10.7577 40.7267 10.1973C40.7267 9.54819 40.3912 9.2087 40.061 9.2087L25.7021 9.20422C25.5228 9.20422 25.3614 9.3057 25.259 9.48254C25.0722 9.80561 25.0722 10.3928 25.259 10.7144C25.3614 10.8905 25.5228 10.9919 25.7028 10.9919V10.9912Z" fill="white"/>
<path d="M5.79303 15.1098L19.4032 15.115C19.7298 15.115 19.9195 14.9792 20.0212 14.8651C20.261 14.5965 20.2483 14.2174 20.2184 13.9563C20.1833 13.6511 19.9136 13.2952 19.2702 13.2952H19.2695L5.79975 13.3027C5.37534 13.3027 5.07646 13.4012 4.88593 13.6026C4.72304 13.775 4.64982 14.0137 4.667 14.3129C4.71333 15.1091 5.3888 15.1091 5.79229 15.1091L5.79303 15.1098Z" fill="white"/>
<path d="M40.0647 13.3228H40.0633L25.7791 13.3534C25.5639 13.3534 25.3778 13.4661 25.2687 13.6616C25.0745 14.0085 25.144 14.5465 25.277 14.7643C25.466 15.074 25.924 15.1143 26.3014 15.1143L39.4595 15.1337H39.4632C39.9048 15.1337 40.2777 15.0128 40.4854 14.8009C40.6154 14.6688 40.6827 14.5047 40.6797 14.3263C40.6797 14.3017 40.6812 14.2711 40.6827 14.2376C40.6924 14.0279 40.7066 13.7115 40.5011 13.4967C40.4249 13.4168 40.2874 13.3228 40.0655 13.3228H40.0647Z" fill="white"/>
<path d="M4.77157 10.3831C4.8687 10.7942 5.10781 11.0024 5.4829 11.0024H5.48589L19.6722 10.9628C19.9643 10.9621 20.2595 10.7241 20.2587 10.1943C20.2587 9.71607 20.0144 9.20721 19.5631 9.20646L5.48888 9.19751C5.27519 9.19751 5.0854 9.28928 4.95315 9.45641C4.72824 9.74069 4.72077 10.1675 4.76934 10.3704L4.77232 10.3839L4.77157 10.3831Z" fill="white"/>
<path d="M26.2849 7.25979C26.2924 7.25979 26.2998 7.25979 26.3066 7.25979L39.9347 7.1904C40.2881 7.1889 40.4757 7.02103 40.5706 6.88002C40.7708 6.58455 40.7185 6.16075 40.6341 5.94811C40.4772 5.55042 39.8458 5.40717 39.4572 5.40717H39.4543L26.3051 5.43477C26.0167 5.43477 25.1402 5.43701 25.129 6.34429C25.126 6.61141 25.2022 6.82555 25.3554 6.97999C25.5997 7.22547 25.9771 7.26054 26.2849 7.26054V7.25979Z" fill="white"/>
<path d="M5.79009 7.24411H5.79607L19.4533 7.19337C19.8456 7.19188 20.137 6.94342 20.214 6.54573C20.2909 6.14656 20.1258 5.61607 19.7253 5.45416L19.6715 5.43252L5.79532 5.42133H5.79383C5.45012 5.42133 5.18336 5.51683 5.00179 5.70486C4.84189 5.8705 4.76343 6.09656 4.77314 6.3592C4.79033 6.80016 5.11088 7.24486 5.78934 7.24411H5.79009Z" fill="white"/>
</svg>
