<svg width="38" height="44" viewBox="0 0 38 44" fill="none" xmlns="http://www.w3.org/2000/svg">
<g clip-path="url(#clip0_156_196)">
<path d="M37.9533 0L0 0.0436351L0.0314104 44L38 43.9692L37.954 0H37.9533ZM36.4171 1.64309V38.4124L19.6359 38.4764L19.5979 1.61525L36.4171 1.64309ZM36.3696 42.3674L1.59828 42.3629C1.50989 41.6287 1.50989 40.8966 1.59828 40.0954L36.3747 40.0638C36.4214 40.8613 36.4404 41.5166 36.3703 42.3682L36.3696 42.3674ZM1.51939 1.64384L18.1048 1.6303L18.1106 38.4004L1.56248 38.4824L1.51939 1.64459V1.64384Z" fill="white"/>
<path d="M21.0194 25.103C21.1612 25.2399 21.3555 25.3181 21.5461 25.3181C21.56 25.3181 21.5739 25.3181 21.5878 25.3166C21.5973 25.3166 21.6082 25.3166 21.6199 25.3159C21.8697 25.3114 22.289 25.2151 22.2875 24.6275L22.2751 19.7449C22.2751 19.4996 22.1561 19.2905 21.9508 19.1708C21.7134 19.0332 21.362 19.0286 21.1502 19.1596C20.9011 19.3145 20.7411 19.6591 20.7441 20.0383L20.7733 24.4876C20.7755 24.8013 20.9084 24.9954 21.0202 25.103H21.0194Z" fill="white"/>
<path d="M16.6519 19.2288C16.4349 19.0844 16.0083 18.9775 15.738 19.1935C15.4838 19.3966 15.4466 19.7314 15.4437 20.0323L15.4027 24.4801C15.4006 24.7283 15.4926 24.9465 15.6628 25.0955C15.7965 25.2121 15.9703 25.2783 16.1332 25.2783C16.1668 25.2783 16.2004 25.2753 16.2333 25.2693C16.2428 25.2685 16.2538 25.2678 16.2662 25.267C16.8213 25.2407 16.9053 24.8562 16.9061 24.6298L16.9178 20.0428C16.9185 19.7208 16.8988 19.3936 16.6511 19.2281L16.6519 19.2288Z" fill="white"/>
</g>
<defs>
<clipPath id="clip0_156_196">
<rect width="38" height="44" fill="white"/>
</clipPath>
</defs>
</svg>
