<svg width="39" height="35" viewBox="0 0 39 35" fill="none" xmlns="http://www.w3.org/2000/svg">
<path d="M38.0387 34.9744L0.0255275 35L0 0.00697721L38.0781 0L38.041 34.9744H38.0387ZM37.3261 34.286L37.289 0.827962L0.775202 0.820985L0.7636 34.293L37.3261 34.2883V34.286Z" fill="white"/>
<path d="M31.6652 31.6556L6.47546 31.6951V11.8566L31.6536 11.8124L31.6628 31.6556H31.6652ZM30.7089 14.0428C30.9155 13.459 30.9805 12.9683 30.6114 12.5589L7.41778 12.5892C7.17872 13.0148 7.1091 13.6404 7.40618 14.0311L30.7089 14.0404V14.0428ZM18.3705 28.6856L18.3613 14.9149L11.3356 14.9382L11.3472 28.8019L18.3705 28.6856ZM26.8282 28.7112L26.8027 14.8358L19.1643 14.8823L19.1736 28.7926L26.8305 28.7135L26.8282 28.7112ZM10.5465 28.6763L10.4954 14.9568C9.30475 14.8498 8.32298 14.8103 7.26461 14.9475L7.2855 28.6647C8.39958 28.8135 9.4417 28.8205 10.5465 28.6786V28.6763ZM30.8412 28.6135L30.8273 14.9428C29.7271 14.7823 28.7361 14.8382 27.6545 14.9614L27.622 28.6763C28.7245 28.7461 29.7295 28.9019 30.8412 28.6135ZM30.7484 30.9346C30.9271 30.6462 31.0246 29.5229 30.6277 29.5229L7.36208 29.4973C7.22514 30.0508 7.16944 30.5159 7.36208 30.9578L30.746 30.9346H30.7484Z" fill="white"/>
<path d="M16.8365 5.01895C16.6508 5.74225 16.9641 9.35644 16.5673 9.52157C16.4442 9.57274 16.1031 9.55646 16.0961 9.30993L15.9963 4.79335C14.9751 5.36315 14.5712 6.49579 13.3179 6.60975C13.8749 5.10732 15.3255 4.54915 16.3003 3.2886L21.0421 7.93774C21.3299 6.97722 20.7868 3.20952 21.4344 3.16766C21.6966 3.15138 21.8336 3.26999 21.8405 3.58397L21.9334 7.90053C22.9314 7.38189 23.3793 6.27019 24.6675 6.13065C23.948 7.60982 22.5995 8.33079 21.5202 9.5332L16.8342 5.02127L16.8365 5.01895Z" fill="white"/>
</svg>
