<svg width="73" height="34" viewBox="0 0 73 34" fill="none" xmlns="http://www.w3.org/2000/svg">
<path d="M47.9248 28.9967L48.0219 32.4796C48.0309 32.8079 48.3245 33.0564 48.7699 33.1138C49.2025 33.1698 49.535 33.0258 49.6164 32.7475C49.7943 32.1386 49.7636 31.5171 49.733 30.9157C49.6986 30.2256 49.6657 29.572 49.9489 28.9967C50.0902 28.9669 50.262 28.9482 50.4406 28.9296C50.8456 28.887 51.2647 28.8423 51.5509 28.6363C52.0127 28.3051 52.2667 27.7178 52.2675 26.9844L52.2802 15.9806C52.2824 14.0026 50.7058 12.4372 48.6137 12.3402C48.1467 12.3186 47.6924 12.3275 47.253 12.3357C46.6657 12.3469 46.1083 12.3581 45.5121 12.3037C45.403 11.7329 45.4426 11.0614 45.4807 10.41C45.5449 9.30572 45.6062 8.26264 44.9935 7.61426C44.6401 7.2412 44.1178 7.05914 43.396 7.05914H43.3908L8.53924 7.10316C7.61047 7.10466 6.59428 7.51204 6.55767 8.40441L6.40152 12.2253C5.8329 12.3238 5.29341 12.3223 4.72629 12.3216C4.46327 12.3216 4.19057 12.3208 3.90364 12.3298C2.06778 12.3872 0.0779818 13.6989 0.0652794 15.7179C0.0593019 16.6916 0.0466053 17.675 0.033903 18.6263C-0.00495128 21.6257 -0.0452999 24.7266 0.127303 27.8029C0.186331 28.8617 1.52156 28.9803 2.31957 29.0519C2.35917 29.0557 2.39728 29.0586 2.43464 29.0624C2.57437 29.5847 2.52729 30.283 2.48544 30.9068C2.42716 31.7805 2.37637 32.5348 2.78135 32.9146C2.93228 33.0564 3.1273 33.128 3.36118 33.128C3.41423 33.128 3.46952 33.1243 3.52705 33.1168C4.38932 33.0056 4.33326 31.917 4.27872 30.8643C4.24734 30.2569 4.21222 29.5772 4.32131 29.0161L47.9255 28.9975L47.9248 28.9967ZM43.721 11.074C43.7091 11.4605 43.6964 11.8575 43.7053 12.2887C42.607 12.3962 41.6341 12.5738 40.8585 13.2415C39.6017 14.3234 39.6264 15.7985 39.6525 17.3609C39.663 18.0093 39.6742 18.6771 39.5935 19.3404C35.7626 18.6554 31.9923 18.5763 28.0658 18.5763C27.4755 18.5763 26.8807 18.5778 26.2829 18.5801L25.4528 18.5823C21.0369 18.5942 16.8608 18.6054 12.595 19.2941C12.5607 18.7226 12.5622 18.1689 12.5629 17.631C12.5644 16.7632 12.5659 15.9433 12.4329 15.0666C12.2872 14.1026 11.75 13.2945 10.9206 12.7916C10.2137 12.3626 9.33427 12.1753 8.41745 12.2529C8.27549 11.0435 8.28147 9.97724 8.43688 8.86253L25.0822 8.86775L25.1158 16.6006V16.6207C25.1173 17.0371 25.1196 17.5094 25.4707 17.6504C25.7181 17.7496 26.2 17.8406 26.5131 17.6869C26.7963 17.5474 26.8568 17.152 26.859 16.5998L26.8979 8.87969L43.5731 8.8282C43.7681 9.54822 43.7457 10.26 43.7203 11.0733L43.721 11.074ZM10.7853 25.7742C10.7861 26.1465 11.1126 26.4106 11.5789 26.4166C12.0593 26.4218 12.4172 26.1681 12.4269 25.8108L12.5599 21.1258C16.6127 20.4581 20.608 20.4088 24.6839 20.4178H24.8281C29.8979 20.4282 34.6912 20.4387 39.6137 21.137L39.6384 25.1564C39.6399 25.4198 39.6809 26.0555 40.0284 26.2763C40.2533 26.4196 40.7741 26.5054 41.1118 26.3218C41.3091 26.2144 41.4227 26.0249 41.4234 25.8018L41.4653 15.9627C41.4697 14.8479 42.2692 14.069 43.408 14.0682L48.6017 14.066C49.9019 14.2204 50.4966 15.1673 50.4989 15.9843L50.5288 27.209L1.81895 27.2411C1.70612 23.0202 1.66952 19.4217 1.84586 15.6836C1.89517 14.636 3.21321 14.1533 3.92305 14.0399L8.83887 14.0436C9.98581 14.0444 10.7577 14.8159 10.7607 15.9634L10.7838 25.7734L10.7853 25.7742Z" fill="white"/>
<path d="M59.5907 7.34415C59.7073 7.33445 59.8224 7.324 59.9352 7.31505C60.6241 8.10594 61.2039 8.74761 61.6747 9.2684C62.8448 10.5629 63.4321 11.2128 63.7055 11.9425C63.979 12.6737 63.9663 13.5616 63.9416 15.3314C63.9334 15.9231 63.9237 16.5886 63.923 17.3818C63.7713 17.4243 63.5061 17.4444 63.3611 17.4556C63.1115 17.475 62.915 17.49 62.776 17.5586C62.6841 17.6041 62.5631 17.7086 62.504 17.9443C62.442 18.1921 62.4577 18.5741 62.6378 18.8285L62.7252 18.9509L62.8754 18.9539C63.1078 18.9583 63.3566 18.9695 63.6204 18.9807C64.0209 18.9979 64.44 19.0165 64.8607 19.0165C65.5877 19.0165 66.3185 18.9621 66.9573 18.7539L67.0582 18.7211L67.1158 18.6315C67.2921 18.3577 67.2779 18.0369 67.0777 17.7742C66.8513 17.4773 66.4373 17.3072 66.1556 17.3952C65.9681 17.4534 65.9023 17.4027 65.8777 17.384C65.4936 17.0863 65.578 15.4971 65.6393 14.3361C65.6856 13.4534 65.7304 12.617 65.6468 11.9992L71.4009 5.4184C71.4099 5.40795 72.2968 4.35666 72.054 3.81199C71.977 3.63814 71.8097 3.53667 71.596 3.53369L61.842 3.37775C61.6134 1.80268 60.5554 0.519341 59.1439 0.139564C57.4896 -0.305873 55.8368 0.338033 55.0321 1.74149C54.2169 3.16212 54.4545 4.77748 55.7001 6.29136C56.7678 7.58888 58.3317 7.45308 59.5885 7.34415H59.5907ZM59.6296 3.41058C59.0393 3.33522 58.3055 3.24195 57.9865 3.88959C57.7138 4.44396 58.1389 4.91551 58.4804 5.29454C58.5835 5.40944 58.6896 5.52659 58.7703 5.63776C58.1479 5.84593 57.4298 5.4669 56.9643 5.03265C56.2933 4.4074 56.1193 3.43445 56.5407 2.6652C56.8866 2.03398 57.4777 1.68404 58.1262 1.68404C58.3631 1.68404 58.6082 1.7303 58.8517 1.8273C59.4039 2.04591 60.1108 2.72414 60.1317 3.45982C59.971 3.45311 59.7984 3.43072 59.6303 3.40908L59.6296 3.41058ZM60.7003 5.17292L69.0091 5.27216C68.3307 6.27868 67.5118 7.15911 66.6517 8.0843C66.0226 8.76029 65.3748 9.45717 64.7688 10.2234L60.7003 5.17292Z" fill="white"/>
<path d="M72.2131 19.4403H72.2109L57.8049 19.4955C57.376 19.497 57.0503 19.6112 56.8627 19.8253C56.7237 19.9842 56.6662 20.1887 56.6961 20.417C56.7409 20.7572 56.9845 21.1564 57.5255 21.1601L63.8662 21.2071L63.7982 31.5007L56.2649 31.5358C55.922 31.5372 55.6649 31.638 55.5006 31.8349C55.3369 32.0304 55.2846 32.2983 55.3437 32.6288C55.3788 32.8236 55.5402 33.275 56.2851 33.275H56.2904L71.7768 33.2317C72.2348 33.2302 72.5553 32.8803 72.5568 32.3804C72.5583 31.9081 72.2744 31.5499 71.8971 31.5469L65.6587 31.4955L65.6012 21.2862L72.382 21.0967C72.7115 21.0878 72.9372 20.7729 72.9304 20.3319C72.9222 19.8141 72.6211 19.4396 72.2146 19.4396L72.2131 19.4403Z" fill="white"/>
<path d="M6.68545 3.99256H43.1494C43.4715 3.99256 43.7293 3.83289 43.857 3.55534C44.0147 3.21212 43.9422 2.75997 43.7778 2.56896C43.6112 2.37571 43.2817 2.2817 42.7699 2.28095L6.69292 2.27051C6.4583 2.27275 6.24984 2.3966 6.12281 2.61746C5.94722 2.92188 5.94348 3.35687 6.11458 3.65308C6.23937 3.86871 6.4471 3.99182 6.68545 3.99182V3.99256Z" fill="white"/>
</svg>
