<svg width="56" height="27" viewBox="0 0 56 27" fill="none" xmlns="http://www.w3.org/2000/svg">
<path d="M31.0783 4.27703C31.3824 3.76769 30.9414 1.53033 31.633 1.90245C32.0137 2.10712 31.9023 4.41192 31.7932 5.02824L16.8831 5.0515L16.7416 9.47737L4.9579 9.50296V21.4386L13.1185 21.5456C13.3065 21.5572 13.2949 22.2806 13.0326 22.2852L4.11538 22.255L4.07593 0L51.5541 0.0162805L51.5494 22.2108L42.9919 22.2782C42.7158 22.0363 42.6856 21.6805 42.9571 21.5131L50.7533 21.4945L50.7417 0.830288L4.98111 0.818659C4.83489 1.97455 4.92077 3.01881 4.98111 4.26307L31.076 4.27703H31.0783ZM16.0313 8.67965C16.0801 7.17722 16.1126 6.30507 16.0058 5.0701L4.96719 5.08173V8.70523L16.0313 8.67965Z" fill="white"/>
<path d="M55.2167 26.318L0.531839 26.3273C0.0954936 26.3273 0.00729597 26.1413 0.000333005 25.9226C-0.00662996 25.6924 0.0931726 25.5203 0.529518 25.5203L55.4 25.5087C55.7505 25.5087 55.7366 25.818 55.7435 25.9296C55.7505 26.0413 55.7273 26.3157 55.2167 26.3157V26.318Z" fill="white"/>
<path d="M36.9714 16.7801L19.058 16.7592C19.6289 15.3289 20.2951 14.2614 21.0749 13.1683L35.0682 13.1473L36.9737 16.7801H36.9714ZM35.7459 16.015C35.3977 15.0986 35.0009 14.5846 34.5506 13.8939L21.4416 13.9125C21.0146 14.666 20.6107 15.2196 20.4111 16.0638L35.7459 16.015Z" fill="white"/>
<path d="M20.0909 20.5758L15.3235 20.5502C14.8477 21.3898 14.8083 24.5412 14.04 24.2853C13.4598 24.0923 14.741 20.8107 14.7062 19.1199C14.6713 17.4291 14.163 15.9453 13.8149 14.3382L13.7128 13.8637C13.6872 13.7405 14.0006 13.5009 14.1213 13.5846C14.7154 14.894 14.9127 16.4034 15.2353 17.9361L20.8568 17.9966L20.8916 23.7086C20.8916 23.9528 20.8707 24.1156 20.7755 24.1784C20.6456 24.2621 20.4274 24.3063 20.316 24.2202C20.1814 24.1179 20.1651 23.9528 20.1605 23.7155L20.0909 20.5781V20.5758ZM19.9957 18.7547C18.6147 18.7175 17.0457 18.678 15.5626 18.8129C15.3143 18.8361 15.3166 19.7618 15.5556 19.7595C17.1432 19.7339 21.2119 20.2572 19.9957 18.7571V18.7547Z" fill="white"/>
<path d="M35.9965 20.4827C35.7366 21.4316 36.0685 23.6597 35.8224 24.183C35.7783 24.2737 35.2677 24.3062 35.2561 24.1341C35.1378 22.0782 35.1958 20.0734 35.2376 18.0221L40.787 17.9035L41.7711 13.9753C41.8245 13.7637 41.8477 13.5404 42.0148 13.6078C42.2121 13.6869 42.3491 13.7683 42.298 14.0451L41.3673 18.8919C41.0168 20.7176 42.3978 22.3805 42.0868 24.3923C41.0609 23.248 41.3116 21.8014 40.729 20.5246L35.9988 20.4804L35.9965 20.4827ZM40.4853 19.671C40.6663 19.6431 40.6246 18.7617 40.3902 18.7593L36.0545 18.7361C35.8549 18.8803 35.848 19.5106 36.0592 19.7571C37.4634 19.7803 39.0788 19.892 40.4853 19.671Z" fill="white"/>
<path d="M31.6888 22.1456H24.3707C24.0457 22.1456 24.0272 21.42 24.3359 21.42L31.7978 21.4107C32.0555 21.4107 32.1228 22.1456 31.6888 22.1456Z" fill="white"/>
<path d="M33.4481 18.3687C33.5247 19.178 33.7731 24.2365 33.2926 24.2714C33.0048 24.2923 32.8447 24.1086 32.8423 23.8039L32.8052 18.8803C32.8052 18.6501 32.7263 18.4408 32.8191 18.3291C32.9189 18.2082 33.4226 18.1058 33.4481 18.371V18.3687Z" fill="white"/>
<path d="M22.9851 24.4388C22.2447 22.3154 22.5929 20.1362 22.9758 17.9244C23.3426 20.092 23.7162 22.1759 22.9851 24.4388Z" fill="white"/>
</svg>
