<svg width="64" height="23" viewBox="0 0 64 23" fill="none" xmlns="http://www.w3.org/2000/svg">
<path d="M59.8399 14.5551C57.7285 14.4979 55.9144 14.4957 53.9679 14.5414L53.9516 22.0172L63.1941 22.0492C63.5193 22.0492 63.5773 22.783 63.1755 22.8996L0.559686 22.9042C0.19036 22.9042 0.0835208 22.7808 0.0324192 22.6504C-0.0279737 22.4996 -0.0326222 22.0675 0.276311 22.0652L5.37022 22.0012C5.5421 21.2422 5.50726 20.4717 5.36789 19.7127L3.01024 19.5984L2.98006 11.5968C2.96844 8.86023 6.23197 9.38376 7.84399 9.29918L7.93923 6.80496C7.95085 6.48261 8.01124 6.18312 8.19474 6.04366C8.43399 5.86077 8.77777 5.74189 9.20749 5.74417L39.0625 5.76246C39.7198 5.76246 40.4631 5.9545 40.5026 6.55119L40.6861 9.31518L43.5919 9.4272C44.8114 9.47292 45.557 10.424 45.5547 11.6242L45.5384 19.5641L43.1599 19.7653C43.0229 20.4626 43.053 21.1118 43.0925 22.0012L53.0852 22.0217L53.0736 14.5505L47.176 14.5025C46.9043 14.5025 46.9043 13.7526 47.2411 13.7549L60.1117 13.8075C60.265 13.8075 60.265 14.578 59.8399 14.5642V14.5551ZM39.7175 9.3609C39.8708 8.36413 40.0032 7.40165 39.5084 6.55805L24.6216 6.65178C24.157 8.36642 24.9143 10.0445 24.1756 11.8917C22.9887 9.47293 25.0583 6.62206 22.5613 6.61292L8.88694 6.56948C8.60821 7.55254 8.65699 8.46929 8.801 9.3609C9.90201 9.35633 10.8962 9.56209 11.4606 10.4057C12.0576 11.2973 11.9856 12.3284 11.9995 13.4874C20.1595 12.8199 28.2336 12.9296 36.4005 13.4463C36.5353 12.5844 36.4307 11.8323 36.67 11.0824C37.0811 9.79528 38.354 9.37233 39.7175 9.3609ZM11.161 18.8051L11.1656 12.0517C11.1656 11.0047 10.4362 10.1451 9.3422 10.1565L5.14259 10.1954C4.51775 10.2022 3.83949 10.7486 3.84413 11.3956L3.90453 18.8302L11.161 18.8074V18.8051ZM44.6511 18.8005L44.6953 11.5945C44.6442 10.7715 44.0681 10.2136 43.2249 10.1748L39.0369 10.1679C38.0846 10.2639 37.3482 10.8538 37.3529 11.8208L37.3854 18.812L44.6535 18.8028L44.6511 18.8005ZM36.5167 18.8074L36.4122 14.2876C28.2243 13.7023 20.1618 13.6909 12.0181 14.2853C11.9693 15.9154 11.9461 17.3214 12.0947 18.8394L36.5167 18.8074ZM41.6872 22.04C41.8196 21.0936 41.8289 20.4557 41.664 19.7104L6.83358 19.715C6.63149 20.458 6.62452 21.2101 6.81499 22.0423H41.6849L41.6872 22.04Z" fill="white"/>
<path d="M55.0666 12.7696C54.1491 12.9936 53.1108 12.9936 52.0284 12.8107C52.3513 12.2232 52.7601 12.5387 53.2409 12.2277C53.1387 6.40714 53.666 8.95623 49.982 4.34273C48.6673 4.77024 47.5012 4.53476 46.83 3.57457C46.1587 2.61438 46.2353 1.09178 47.3363 0.38307C48.0634 -0.085596 48.9925 -0.106171 49.7613 0.223038C50.4117 0.501951 50.8484 1.24496 51.0482 2.09542L58.9457 2.21887L53.9935 8.03261L53.9865 12.246C54.0632 12.5089 54.6067 12.2072 55.0689 12.7696H55.0666ZM48.4977 2.19372L50.4442 2.00854C50.2561 1.32269 49.7102 0.863167 49.2759 0.707707C48.6348 0.474517 47.9937 0.524813 47.4989 0.947756C46.7812 1.56045 46.8137 2.56865 47.3433 3.28194C47.773 3.86034 48.6348 4.19412 49.4222 3.81691L48.4977 2.19601V2.19372ZM56.4835 3.89006C56.8157 3.89692 57.0782 3.25908 57.2477 3.01674C54.8529 2.89558 52.5046 2.84985 50.0726 3.0236C50.205 3.35281 50.5371 3.96779 50.8647 3.9998C52.7531 3.74375 54.5486 3.84891 56.4858 3.89235L56.4835 3.89006ZM55.8285 4.69022L51.4082 4.6285C52.1283 5.55211 52.7415 6.43229 53.6172 7.30332L55.8285 4.68794V4.69022Z" fill="white"/>
<path d="M41.6153 2.91844L2.64098 2.93444C2.3274 2.93444 2.21358 2.91386 2.13461 2.81784C2.00918 2.66467 1.98362 2.23944 2.39011 2.23944H41.5526C41.8801 2.23944 41.9916 2.26002 42.0496 2.37204C42.1797 2.61895 42.1727 2.92072 41.613 2.92072L41.6153 2.91844Z" fill="white"/>
</svg>
