<svg width="59" height="41" viewBox="0 0 59 41" fill="none" xmlns="http://www.w3.org/2000/svg">
<path d="M15.7047 30.2024C15.9139 30.1405 16.4713 29.8487 16.4175 29.4563C16.304 28.6318 16.1456 27.8267 15.9916 27.0478C15.6382 25.2526 15.3035 23.5567 15.4492 21.5503C15.7174 17.854 17.4958 14.4144 20.7364 11.3277C24.1301 8.54761 27.8945 6.42339 32.2447 4.83414C36.0165 3.45605 40.1695 2.50698 44.9321 1.93545C44.9836 6.85017 44.3007 11.7783 43.0006 15.8484C41.3156 21.125 38.6833 24.9198 35.1782 27.1269C31.3592 29.3011 26.885 30.6851 21.5 31.3596C21.0905 31.4111 20.891 31.6021 20.7954 31.7528C20.6669 31.9565 20.6444 32.2162 20.7334 32.4833C20.8656 32.8825 21.222 32.9466 21.553 32.9466C21.6367 32.9466 21.7181 32.9429 21.7944 32.9384H21.8033C25.9398 32.7318 29.8439 31.8677 33.0942 30.4382C36.9916 28.7243 39.9296 26.2427 41.826 23.0635C43.7896 20.0021 45.1465 16.4491 45.9752 12.2021C46.6379 8.80278 46.9577 4.91174 46.9525 0.307404V0L46.6439 0.00969956C40.9974 0.187277 34.5976 1.62581 29.087 3.9567C24.5134 5.8914 18.4111 9.36014 15.3154 14.9016L15.3102 14.9113C14.1296 17.2183 13.4953 19.826 13.4773 22.4524C13.4594 25.0377 14.0355 27.6514 15.1436 30.0099C15.2153 30.1621 15.3998 30.2934 15.7047 30.2031V30.2024Z" fill="white"/>
<path d="M14.566 40.9898C15.0038 40.9898 15.4409 40.8526 15.8556 40.4489L15.9132 40.393L15.9348 40.3161C17.9261 33.2727 20.9545 27.3261 25.1956 22.1345C27.3199 19.5029 29.6609 17.3444 32.1386 15.059C33.1361 14.1391 34.1679 13.1877 35.1864 12.2006L36.7742 10.6621L34.8344 11.7246C29.8073 14.4785 25.1306 18.7329 21.3094 24.0289C17.7834 28.9161 15.03 34.5874 13.3466 40.431L13.2666 40.7093L13.5431 40.7974C13.8786 40.904 14.223 40.9884 14.566 40.9884V40.9898Z" fill="white"/>
<path d="M57.9131 35.2798C57.6994 34.8418 57.1375 34.8425 56.9544 34.8425L20.6077 34.8664C19.8456 34.8664 19.5721 35.3357 19.5691 35.7379C19.5669 36.005 19.6461 36.2206 19.8045 36.3803C19.9838 36.5609 20.2543 36.6519 20.6077 36.6519L57.0971 36.6489C57.5649 36.6489 57.792 36.4422 57.9004 36.2691C58.1208 35.9177 58.005 35.4678 57.9131 35.2798Z" fill="white"/>
<path d="M0.983385 36.6527H0.987873L11.8708 36.6221C12.2549 36.6213 12.4574 36.437 12.559 36.2826C12.7704 35.9625 12.7129 35.5305 12.6225 35.3178C12.5306 35.1022 12.2974 34.8448 11.7057 34.8448H11.7042L0.991594 34.8537C0.664322 34.8537 0.408787 34.944 0.232448 35.1216C0.0777785 35.2775 -0.00290867 35.4917 8.01219e-05 35.7401C0.0053105 36.2945 0.391605 36.6519 0.983385 36.6519V36.6527Z" fill="white"/>
</svg>
