<svg width="46" height="34" viewBox="0 0 46 34" fill="none" xmlns="http://www.w3.org/2000/svg">
<path d="M36.7401 0.848171C28.2177 1.82665 15.1612 6.32585 12.5597 15.3837C11.8536 17.8436 12.0905 20.3378 12.5667 22.8115C12.6805 23.4104 12.9221 23.9911 12.4691 24.5581C10.0093 19.1147 11.1126 12.9763 15.4957 8.91837C17.2378 7.30433 19.0101 5.91891 21.1912 4.90842C25.8392 2.26789 32.1038 0.658418 37.5995 0C37.5995 6.25498 36.7981 12.5831 33.6833 17.9008C29.9738 24.0117 23.8787 26.147 16.9359 26.6111C16.764 26.5173 16.7872 26.3505 16.7965 26.2819C16.8151 26.1653 16.9544 25.987 17.1867 25.9549C20.3109 25.5206 23.2492 24.8004 26.1133 23.5179C29.4047 22.0022 31.767 19.4942 33.4812 16.3119C35.8551 11.6206 36.8098 6.55675 36.7378 0.850457L36.7401 0.848171Z" fill="white"/>
<path d="M12.3855 32.9986C12.2415 33.4947 11.252 33.2455 10.9617 33.1038C13.9279 23.0537 20.0508 12.9306 29.421 7.36829C26.0878 10.4706 22.8335 13.2666 20.1669 16.9108C16.5921 21.7941 14.0951 27.082 12.3855 32.9986Z" fill="white"/>
<path d="M45.4878 29.2265C36.9701 29.8894 28.8031 29.2859 20.4155 29.5305C18.7384 29.5785 17.2402 29.814 15.5376 29.2973C17.073 28.6823 18.4272 28.9727 19.9718 29.0116C28.5406 29.2219 36.9747 28.7761 45.4878 29.2287V29.2265Z" fill="white"/>
<path d="M9.97909 29.007C11.2845 29.8186 -0.0716659 29.5694 0.000341034 29.2607L9.97909 29.007Z" fill="white"/>
</svg>
