<svg width="45" height="42" viewBox="0 0 45 42" fill="none" xmlns="http://www.w3.org/2000/svg">
<path d="M0.0149439 41.3801L44.3073 41.404L44.3208 0L0 0.00149225L0.0149439 41.3801ZM1.73126 39.5745L1.74321 1.75563L42.5424 1.78697L42.5559 39.5357L1.73126 39.5745Z" fill="white"/>
<path d="M27.5521 7.77983C24.3892 7.58807 21.3616 7.64478 18.1561 7.70521C16.8553 7.72983 15.5103 7.7552 14.1683 7.76192L13.8717 7.76341L13.8351 33.0227C13.8343 33.5368 14.0338 33.8054 14.2005 33.9397C14.3484 34.0583 14.5292 34.1203 14.725 34.1203C14.7952 34.1203 14.867 34.1121 14.9402 34.0964C15.6269 33.9457 15.6343 33.2727 15.6366 33.019L15.733 24.1043L27.7718 23.9327C29.651 23.9058 31.3382 23.147 32.6525 21.7376C33.8577 20.446 34.6311 18.715 34.8321 16.8624C35.1668 14.633 34.5579 12.3663 33.1606 10.642C31.7753 8.93184 29.7833 7.91562 27.5514 7.78057L27.5521 7.77983ZM31.7798 19.6686C30.5043 21.3496 28.466 22.2726 26.0368 22.2606L15.7158 22.2196L15.7053 9.47054L27.514 9.63171C29.6286 9.66081 31.6617 11.0829 32.4582 13.09C33.3997 15.4619 33.1524 17.86 31.7798 19.6686Z" fill="white"/>
</svg>
