<svg width="39" height="34" viewBox="0 0 39 34" fill="none" xmlns="http://www.w3.org/2000/svg">
<path d="M38.1102 33.3187L0 33.3256L0.00929121 0.0114309L38.0986 0L38.1102 33.3187ZM37.3274 32.594L37.3065 0.749865L0.80369 0.791017L0.819949 32.5894L37.3298 32.594H37.3274Z" fill="white"/>
<path d="M22.1154 20.1961L14.7103 20.2761L14.6406 28.1382L10.6292 28.1428L10.6245 5.9692L21.4697 5.93262C22.8146 5.92804 23.9969 6.18181 25.2326 6.69849C29.2906 8.8955 30.5844 14.3297 27.5275 17.8893C26.25 19.3776 24.1572 20.1755 22.1131 20.1984L22.1154 20.1961ZM22.5939 19.3182C25.4672 19.277 27.7761 17.1257 28.2128 14.4921C28.8167 10.5781 26.257 7.11686 22.1944 6.87452C18.6219 6.66191 15.0889 6.8288 11.4886 6.81279L11.4491 27.2809C12.2458 27.4455 13.0193 27.441 13.7696 27.2901L13.7882 19.4462L22.5939 19.3205V19.3182Z" fill="white"/>
<path d="M25.5857 12.9581C25.9156 15.4546 24.213 17.1646 21.8181 17.3384C19.1818 17.5304 16.5756 17.3498 13.8184 17.4024L13.7836 8.8338C16.5198 8.87266 19.2398 8.62347 21.9505 8.91838C24.1108 9.15386 25.6856 10.7519 25.5811 12.9558L25.5857 12.9581ZM24.7913 13.1867C24.7913 11.1154 23.2095 9.64539 21.2444 9.6431L14.7011 9.63167L14.65 16.5725L21.7043 16.5336C23.5533 16.5222 24.9144 15.1482 24.7937 13.189L24.7913 13.1867Z" fill="white"/>
</svg>
