<svg width="62" height="31" viewBox="0 0 62 31" fill="none" xmlns="http://www.w3.org/2000/svg">
<path d="M44.3835 27.8448C39.4692 27.1293 35.4216 25.1207 31.5071 23.1778C25.9464 20.4179 20.6936 17.8117 13.4062 18.857C9.31381 19.4435 5.56512 20.7149 2.26251 22.6354L0 23.9508L2.50162 23.1778C16.5093 18.8503 21.3997 21.3274 28.1678 24.7559C30.9086 26.1444 34.0147 27.7172 38.1392 29.0289C40.7738 29.8668 43.4973 30.2802 46.2074 30.2802C50.7265 30.2802 55.2067 29.1297 59.1668 26.8779L61.1222 25.7661L58.9442 26.3295C53.9305 27.6262 49.3748 28.6357 44.3843 27.8441L44.3835 27.8448Z" fill="white"/>
<path d="M13.9068 11.7375C17.8049 11.6062 21.3175 12.4157 24.9601 14.284C25.7984 14.7138 26.6353 15.151 27.4445 15.5741C29.973 16.8947 32.3611 18.1422 34.9919 19.2972C38.6711 20.9126 42.6537 21.7602 46.5459 21.7602C46.7297 21.7602 46.9135 21.7579 47.0965 21.7542C51.2741 21.6677 55.3434 20.5895 58.8649 18.6354L60.9832 17.4603L58.6422 18.0863C53.8744 19.3621 48.1987 20.4642 42.2547 18.9592C38.5994 18.1027 34.9068 16.2299 31.3352 14.4183C27.6238 12.5366 24.1187 10.7586 20.6428 10.0199C15.9959 9.03204 11.0204 9.61402 5.85573 11.7494C5.56209 11.871 5.2647 11.9792 4.97703 12.0837C3.97578 12.4485 3.02909 12.7933 2.21315 13.6483L1.39197 14.5093L2.52323 14.1378C5.90803 13.026 9.90778 11.871 13.9075 11.7367L13.9068 11.7375Z" fill="white"/>
<path d="M9.91687 2.53181C17.4382 0.874666 22.0969 3.60399 27.4909 6.76383C29.5682 7.98076 31.7171 9.23947 34.1739 10.34C38.0429 12.1635 42.2414 13.1566 46.3166 13.2118C46.4354 13.2133 46.5527 13.2141 46.6708 13.2141C50.8102 13.2141 54.81 12.2352 58.2583 10.3743L60.1091 9.37601L58.0528 9.82071C53.4501 10.8153 48.6912 11.8435 43.7515 10.7511C38.8469 9.63194 34.1403 7.66217 28.9398 4.55157L28.9315 4.54709C25.2434 2.49525 21.269 0.535925 17.2013 0.0957113C13.3637 -0.319134 9.49544 0.607553 5.0287 3.01306C4.87477 3.09588 4.70666 3.16154 4.52808 3.23093C3.95647 3.45253 3.24588 3.72859 3.12035 4.72393L3.04041 5.35515L3.57764 5.01268C5.39781 3.85245 7.29346 3.1108 9.91612 2.5333L9.91687 2.53181Z" fill="white"/>
<path d="M48.9273 3.82407C51.8914 4.52692 54.6912 5.19022 58.8964 3.39281L60.9885 2.49895L58.7365 2.82352C55.2112 3.33163 52.6939 2.65265 50.2595 1.99606C47.6458 1.29172 45.1763 0.625431 41.6615 1.34768C38.6189 1.97219 36.3355 2.83844 34.475 4.07551L32.4194 5.44092L34.7417 4.60452C41.6772 2.10649 45.529 3.01975 48.9273 3.82481V3.82407Z" fill="white"/>
</svg>
