<svg width="49" height="21" viewBox="0 0 49 21" fill="none" xmlns="http://www.w3.org/2000/svg">
<path d="M43.225 13.7239C35.7015 16.1175 30.3753 14.9036 23.6276 11.6275C17.5859 8.6943 14.1134 6.91337 7.27502 7.77526C4.706 8.09761 2.51095 9.05552 0 9.77337C2.75252 8.06789 5.8372 7.09855 9.07983 6.58416C23.2861 4.32542 29.3416 19.876 48.7533 11.0651C48.7208 11.7418 48.003 11.584 47.6337 11.8309C46.2818 12.734 44.8789 13.2004 43.2274 13.7262L43.225 13.7239Z" fill="white"/>
<path d="M44.3515 18.6025C39.4806 20.8658 34.0499 21.4328 28.9607 19.8714C22.8888 18.0081 18.1759 14.2336 11.8393 13.9959C7.72327 13.8176 4.06485 15.1481 0.199707 16.6067C5.86967 13.0517 13.4374 11.5291 19.7856 14.2702L27.2278 17.4823C33.4065 20.1503 39.9847 20.1686 46.2493 17.4114C45.9427 18.2139 45.1413 18.2367 44.3539 18.6025H44.3515Z" fill="white"/>
<path d="M45.8359 5.41818C39.3483 10.3426 30.8561 9.35954 23.9597 5.85484C15.7672 1.86546 11.4723 -1.03798 2.05103 2.48501C4.68973 0.754378 7.81855 0.329149 10.9334 0.0799561C15.7021 0.210268 19.5185 2.04607 23.7344 4.02361C26.1849 5.10268 28.5287 6.16118 31.1488 6.76473C36.1289 8.19816 41.023 7.47345 45.8382 5.41818H45.8359Z" fill="white"/>
<path d="M37.9313 1.76032C32.4263 -0.146354 30.0756 0.854991 24.8191 2.21298C27.4322 0.733824 30.3892 0.0616887 33.4576 0.00224816C38.3146 -0.091485 39.987 2.78452 46.0634 1.39224C43.6129 2.88054 40.584 2.67936 37.929 1.76032H37.9313Z" fill="white"/>
</svg>
