<svg width="68" height="28" viewBox="0 0 68 28" fill="none" xmlns="http://www.w3.org/2000/svg">
<path d="M63.746 9.14011C64.8949 12.6403 63.0474 16.4429 59.4568 17.6895L57.665 21.9921C58.1663 21.8782 58.5145 21.4642 58.7907 21.0037C60.5407 18.0895 63.9618 16.8313 67.1903 18.0221C66.0252 21.1967 63.0961 22.8713 59.856 22.5782C58.9276 22.4945 57.8715 22.6061 57.3215 23.4411C56.7296 24.3365 56.5138 25.39 56.2306 26.3645L63.3676 26.4064C63.6346 26.4064 63.855 26.4389 63.9177 26.5971C63.9943 26.7878 63.9804 27.1878 63.5324 27.1878L3.32829 27.1832C2.89194 27.1832 2.92909 27.025 2.91748 26.8297C2.90588 26.6203 2.98247 26.4366 3.29348 26.4343L10.7044 26.3785C10.1775 24.7574 9.91062 22.2224 7.47822 22.5201C4.17777 22.9224 1.13032 21.0711 0 17.9942C4.6884 16.6801 6.5243 18.6152 9.06811 21.8433C8.8244 20.3269 8.20006 19.178 7.77996 17.736C4.17546 16.5127 2.40454 12.7124 3.50701 9.12848C6.51269 10.0448 8.41126 12.6496 8.43911 15.8126C8.45072 17.1616 8.44374 18.4454 9.32572 19.5617C9.12147 16.3406 10.7624 13.7962 13.7217 13.0194C14.3321 16.1894 13.0788 19.271 9.86885 20.3874C9.93848 21.7316 10.2147 23.0085 11.0409 24.3272C11.7001 20.5874 14.6269 18.2779 18.4379 18.6245C17.6952 25.1505 11.6583 24.176 11.4169 25.0086C11.3102 25.3761 11.41 25.8482 11.656 26.3994L55.0051 26.3854C55.5459 26.3854 55.6991 24.9016 55.2952 24.7946C53.9026 24.4295 52.2617 24.2179 51.0061 23.3015C49.4742 22.1828 48.5806 20.5083 48.5342 18.6152C52.2663 18.2477 55.3765 20.6269 55.9521 24.5062C56.5996 23.1689 56.9385 21.913 57.1706 20.4176C53.9653 19.4082 52.3986 16.2103 53.1762 13.0055C56.1679 13.7288 57.7624 16.3894 57.6719 19.5896C58.598 18.6407 58.7767 17.3313 58.7025 16.0429C58.6955 12.8752 60.4687 10.1518 63.7552 9.14011H63.746ZM7.60819 16.7801C8.08632 13.9683 6.62874 11.2542 3.99441 10.1355C3.61377 12.9427 4.82997 15.7917 7.60819 16.7801ZM62.7062 10.3309C60.4061 11.6077 59.0088 14.2172 59.5194 16.8476C63.4024 15.608 64.1568 9.52618 62.7062 10.3309ZM56.8248 19.392C56.9872 17.0499 55.8592 14.8196 53.7379 13.9986C53.5313 16.2196 54.5339 18.4012 56.8248 19.392ZM12.6239 14.2474C10.7903 15.3475 9.89204 17.35 10.0522 19.471C12.8861 18.5919 13.9375 13.459 12.6239 14.2474ZM7.77531 21.6479C6.30845 19.0663 3.67645 17.7663 1.00267 18.4849C2.29546 20.8386 5.06904 22.3852 7.77531 21.6479ZM66.1899 18.4849C63.3166 17.7453 60.5662 19.2292 59.2316 21.7363C62.0539 22.2433 64.7718 21.1409 66.1899 18.4849ZM17.5304 19.378C14.8404 19.4152 12.5682 21.099 12.0204 23.7806C14.606 23.7992 17.0152 22.1735 17.5304 19.378ZM54.9958 23.8295C54.3529 20.9107 51.8834 19.3803 49.3442 19.3687C49.9129 22.2038 52.4381 23.7876 54.9958 23.8295Z" fill="white"/>
<path d="M33.4639 6.69346L24.2705 12.6939L24.2519 24.3993C24.2519 24.79 24.0987 24.9598 23.8132 24.9528C23.551 24.9458 23.3676 24.7784 23.3653 24.3946L23.3119 13.352L20.4014 15.0568C20.2157 15.1661 20.037 14.9196 19.9209 14.8359C19.7886 14.7405 19.9511 14.5219 20.1879 14.3637L33.4523 5.54688L46.5241 14.273C46.7121 14.3986 46.9512 14.5545 46.9466 14.6917C46.9419 14.8289 46.6541 15.0894 46.4638 14.9801L43.4372 13.2497L43.3722 24.6667C43.3722 24.997 42.5715 25.0086 42.5692 24.783L42.4879 12.652L33.4686 6.69579L33.4639 6.69346Z" fill="white"/>
<path d="M58.4215 0.811682L8.14426 0.79075L8.08161 7.6726C8.07929 8.02844 7.97483 8.17031 7.79612 8.17496C7.48046 8.18427 7.35049 8.00518 7.35281 7.66795L7.41779 0.00465113L59.2292 0L59.2594 7.89587C59.2594 8.14008 58.9484 8.18659 58.837 8.19357C58.6003 8.20752 58.5445 8.00518 58.5399 7.6726L58.4215 0.811682Z" fill="white"/>
</svg>
