<svg width="58" height="31" viewBox="0 0 58 31" fill="none" xmlns="http://www.w3.org/2000/svg">
<path d="M48.5446 29.6204C46.5706 29.654 44.53 29.6883 42.9683 29.6316C40.6632 29.548 40.3203 29.2847 40.2717 29.2242L40.1439 28.8534C39.3915 26.6725 38.6809 24.6094 38.0944 22.4293C38.1937 22.3263 38.3335 22.2539 38.4904 22.1726C38.734 22.0465 39.0104 21.9032 39.1733 21.6033L49.7865 2.0026L49.6744 1.85038C49.1006 1.07292 48.3093 0.662554 47.4717 0.22831C47.3551 0.167873 47.2371 0.106693 47.1175 0.043272L47.0361 0L34.2568 1.4445L25.5392 17.61L7.87695 17.619C7.32701 17.619 6.64781 17.6794 6.26674 18.1465C5.95142 18.5337 5.94096 18.9896 5.93124 19.4306C5.92826 19.5537 5.92602 19.6805 5.91556 19.8022C5.79451 21.2974 6.43187 22.3196 7.67521 22.6598L4.95093 29.413C4.43163 29.5868 3.89812 29.5734 3.33548 29.56C2.54794 29.5406 1.65503 29.5189 0.732239 30.0547L0 30.4792L0.836857 30.6075C2.16537 30.8112 3.5701 31.0022 5.07272 31.0022C5.54345 31.0022 6.02465 30.9836 6.51481 30.9403C8.34171 30.7799 10.0565 30.8299 11.7153 30.8776C12.5656 30.9023 13.4451 30.9276 14.3357 30.9246L41.1967 30.847C42.5506 30.8433 43.9016 30.856 45.2084 30.8679C49.1334 30.9045 52.8403 30.9388 56.8146 30.5687L57.8846 30.4688L56.917 30.0024C55.8665 29.4958 52.3098 29.5562 48.5446 29.6204ZM16.6498 22.5762L15.068 29.4175C12.3773 29.7279 9.70983 29.7301 6.9325 29.4234L9.63735 22.5725L16.6506 22.5762H16.6498ZM44.1392 2.22196L35.9066 17.5877L27.6284 17.6242L35.3626 3.08149L44.1392 2.22196ZM7.81268 19.4373L36.8988 19.356L46.3867 1.98618C46.8149 2.01155 47.1265 2.17197 47.5322 2.43983L37.5429 20.7117L8.06824 20.7005C7.91581 20.6281 7.80746 20.4968 7.74769 20.3103C7.66101 20.0424 7.68939 19.7037 7.81193 19.4373H7.81268ZM18.5066 22.5225L36.0448 22.5449L38.4067 29.4391C37.7073 29.5354 37.0334 29.6219 36.1509 29.6219H36.1486L19.2119 29.6189C18.4251 29.6189 17.7205 29.5301 16.9278 29.4219L18.5081 22.5225H18.5066Z" fill="white"/>
</svg>
