<svg width="41" height="40" viewBox="0 0 41 40" fill="none" xmlns="http://www.w3.org/2000/svg">
<path d="M21.5843 0.222426C20.6503 -0.134222 19.7499 -0.0625894 18.8316 0.441791L0.0836858 9.15355L0 29.9533L19.0416 38.8068C19.4989 39.0336 19.9644 39.1463 20.4261 39.1463C20.9664 39.1463 21.5028 38.9918 22.0177 38.6829L40.8754 29.9839L40.9389 9.20503L21.603 0.231379L21.5835 0.223173L21.5843 0.222426ZM19.5766 19.418L19.5377 36.9974L1.75367 28.855L1.87919 11.3285L19.5758 19.4187L19.5766 19.418ZM39.1569 28.8826L21.3489 37.0489L21.3586 19.3829L39.1113 11.1696L39.1569 28.8826ZM37.8523 9.77059L20.4725 17.7937L2.82739 9.71463L20.4396 1.67812L37.8515 9.77133L37.8523 9.77059Z" fill="white"/>
</svg>
